<?xml version="1.0" encoding="UTF-8"?>
<!DOCTYPE svg PUBLIC "-//W3C//DTD SVG 1.1//EN" "http://www.w3.org/Graphics/SVG/1.1/DTD/svg11.dtd">
<!-- Creator: CorelDRAW -->
<svg xmlns="http://www.w3.org/2000/svg" xml:space="preserve" width="2048px" height="2048px" style="shape-rendering:geometricPrecision; text-rendering:geometricPrecision; image-rendering:optimizeQuality; fill-rule:evenodd; clip-rule:evenodd"
viewBox="0 0 2048 2048"
 xmlns:xlink="http://www.w3.org/1999/xlink">
 <defs>
  <style type="text/css">
   <![CDATA[
    .fil2 {fill:none}
    .fil11 {fill:#00B8D4}
    .fil12 {fill:#37474F}
    .fil18 {fill:#4D2909}
    .fil6 {fill:#546E7A}
    .fil17 {fill:#57300F}
    .fil16 {fill:#673B15}
    .fil5 {fill:#78909C}
    .fil19 {fill:#7C4D24}
    .fil1 {fill:#80CBC4}
    .fil7 {fill:#80D8FF}
    .fil22 {fill:#824E21}
    .fil21 {fill:#945823}
    .fil0 {fill:#B2DFDB}
    .fil23 {fill:#CB740A}
    .fil15 {fill:#FFA000}
    .fil3 {fill:#263238;fill-rule:nonzero}
    .fil4 {fill:#37474F;fill-rule:nonzero}
    .fil20 {fill:#424242;fill-rule:nonzero}
    .fil10 {fill:#7CB342;fill-rule:nonzero}
    .fil13 {fill:#B71C1C;fill-rule:nonzero}
    .fil14 {fill:#D32F2F;fill-rule:nonzero}
    .fil8 {fill:#EF5350;fill-rule:nonzero}
    .fil9 {fill:#FFAB40;fill-rule:nonzero}
   ]]>
  </style>
   <clipPath id="id0">
    <path d="M1024 -0.0011811c565.539,0 1024,458.462 1024,1024 0,565.539 -458.462,1024 -1024,1024 -565.539,0 -1024,-458.462 -1024,-1024 0,-565.539 458.462,-1024 1024,-1024z"/>
   </clipPath>
 </defs>
 <g id="Layer_x0020_1">
  <metadata id="CorelCorpID_0Corel-Layer"/>
  <path class="fil0" d="M1024 -0.0011811c565.539,0 1024,458.462 1024,1024 0,565.539 -458.462,1024 -1024,1024 -565.539,0 -1024,-458.462 -1024,-1024 0,-565.539 458.462,-1024 1024,-1024z"/>
  <g style="clip-path:url(#id0)">
   <g id="_289372568">
    <g>
     <polygon id="_2926833681" class="fil1" points="1578.71,585.872 2714.59,1721.75 2715.92,1723.54 2717.09,1725.45 2718.06,1727.47 2718.84,1729.6 2719.41,1731.82 2719.76,1734.12 2719.88,1736.49 1584,600.608 1583.88,598.239 1583.53,595.939 1582.96,593.719 1582.18,591.591 1581.2,589.565 1580.04,587.656 "/>
     <polygon id="_292683704" class="fil1" points="1584,600.608 2719.88,1736.49 2719.88,2248.87 1584,1112.99 "/>
     <polygon id="_292684208" class="fil1" points="1584,1112.99 2719.88,2248.87 2719.88,2402.73 1584,1266.85 "/>
     <polygon id="_292684688" class="fil1" points="1584,1266.85 2719.88,2402.73 2719.76,2405.1 2719.41,2407.4 2718.84,2409.62 2718.06,2411.75 2717.09,2413.77 2715.92,2415.68 2714.59,2417.46 2713.1,2419.11 2711.45,2420.61 2709.67,2421.94 2707.76,2423.1 2705.73,2424.08 2703.6,2424.85 2701.38,2425.42 2699.08,2425.78 2696.72,2425.9 1560.83,1290.01 1563.2,1289.89 1565.5,1289.54 1567.72,1288.97 1569.85,1288.19 1571.88,1287.22 1573.79,1286.06 1575.57,1284.72 1577.21,1283.23 1578.71,1281.58 1580.04,1279.8 1581.2,1277.89 1582.18,1275.86 1582.96,1273.73 1583.53,1271.52 1583.88,1269.21 "/>
     <polygon id="_292684712" class="fil1" points="1560.83,1290.01 2696.72,2425.9 2219.42,2425.9 1083.54,1290.01 "/>
     <polygon id="_292683992" class="fil1" points="1083.54,1290.01 2219.42,2425.9 2219.42,2533.39 1083.54,1397.5 "/>
     <polygon id="_292684352" class="fil1" points="1251.11,1426.2 2386.99,2562.09 2388.54,2563.83 2389.65,2565.62 2390.33,2567.46 2390.56,2569.35 1254.68,1433.47 1254.45,1431.58 1253.77,1429.74 1252.65,1427.95 "/>
     <polygon id="_292684160" class="fil1" points="964.459,1290.01 2100.34,2425.9 1623.05,2425.9 487.165,1290.01 "/>
     <polygon id="_292684304" class="fil1" points="1254.68,1433.47 2390.56,2569.35 2389.23,2573.84 2385.38,2578.04 2379.15,2581.96 2370.73,2585.58 2360.29,2588.91 2347.98,2591.95 2333.99,2594.71 2318.47,2597.17 2301.6,2599.34 2283.55,2601.22 2264.49,2602.82 2244.58,2604.12 2224,2605.14 2202.91,2605.86 2181.48,2606.29 2159.88,2606.44 2138.28,2606.29 2116.85,2605.86 2095.76,2605.14 2075.18,2604.12 2055.27,2602.82 2036.21,2601.22 2018.16,2599.34 2001.29,2597.17 1985.78,2594.71 1971.78,2591.95 1959.48,2588.91 1949.03,2585.58 1940.61,2581.96 1934.39,2578.04 798.506,1442.16 804.729,1446.07 813.148,1449.7 823.595,1453.03 835.901,1456.07 849.896,1458.82 865.411,1461.29 882.278,1463.46 900.328,1465.34 919.391,1466.93 939.3,1468.24 959.884,1469.25 980.974,1469.98 1002.4,1470.41 1024,1470.56 1045.6,1470.41 1067.03,1469.98 1088.12,1469.25 1108.7,1468.24 1128.61,1466.93 1147.67,1465.34 1165.72,1463.46 1182.59,1461.29 1198.11,1458.82 1212.1,1456.07 1224.41,1453.03 1234.85,1449.7 1243.27,1446.07 1249.5,1442.16 1253.35,1437.96 "/>
     <polygon id="_292684952" class="fil1" points="487.165,1290.01 1623.05,2425.9 1620.68,2425.78 1618.38,2425.42 1616.16,2424.85 1614.03,2424.08 1612,2423.1 1610.09,2421.94 1608.31,2420.61 472.429,1284.72 474.213,1286.06 476.123,1287.22 478.148,1288.19 480.277,1288.97 482.496,1289.54 484.797,1289.89 "/>
    </g>
    <path id="_289372520" class="fil1" d="M1560.83 577.443c12.7937,0 23.1662,10.3713 23.1662,23.165l0 512.385 0 153.854c0,12.7937 -10.3724,23.1662 -23.1662,23.1662l-477.293 0 0 107.49c92.4107,3.5504 171.136,15.5398 171.136,35.967 0,49.4504 -461.352,49.4504 -461.352,0 0,-20.4272 78.7253,-32.4166 171.135,-35.967l0 -107.49 -477.294 0c-12.7937,0 -23.1662,-10.3724 -23.1662,-23.1662l0 -153.854 0 -512.385c0,-12.7937 10.3724,-23.165 23.1662,-23.165l1073.67 0z"/>
   </g>
  </g>
  <path class="fil2" d="M1024 -0.0011811c565.539,0 1024,458.462 1024,1024 0,565.539 -458.462,1024 -1024,1024 -565.539,0 -1024,-458.462 -1024,-1024 0,-565.539 458.462,-1024 1024,-1024z"/>
  <path class="fil3" d="M793.325 1433.47c0,49.4504 461.352,49.4504 461.352,0 0,-49.4504 -461.352,-49.4504 -461.352,0z"/>
  <path class="fil4" d="M1083.54 1266.85c0,-12.7937 -26.6587,-23.165 -59.5406,-23.165 -32.8819,0 -59.5406,10.3713 -59.5406,23.165l0 157.018c0,12.7937 26.6587,23.165 59.5406,23.165 32.8819,0 59.5406,-10.3713 59.5406,-23.165l0 -157.018z"/>
  <path class="fil5" d="M487.165 577.443l1073.67 0c12.7937,0 23.1662,10.3713 23.1662,23.165l0 666.239c0,12.7937 -10.3724,23.1662 -23.1662,23.1662l-1073.67 0c-12.7937,0 -23.1662,-10.3724 -23.1662,-23.1662l0 -666.239c0,-12.7937 10.3724,-23.165 23.1662,-23.165z"/>
  <path class="fil6" d="M1584 1112.99l0 153.854c0,12.7937 -10.3724,23.1662 -23.1662,23.1662l-1073.67 0c-12.7937,0 -23.1662,-10.3724 -23.1662,-23.1662l0 -153.854 1120 0z"/>
  <polygon class="fil7" points="1537.67,623.774 510.331,623.774 510.331,1095.63 1537.67,1095.63 "/>
  <polygon class="fil8" points="1508.3,1186.82 1508.3,1216.19 1537.67,1216.19 1537.67,1186.82 "/>
  <polygon class="fil9" points="1405.45,1216.19 1434.81,1216.19 1434.81,1186.82 1405.45,1186.82 "/>
  <polygon class="fil10" points="1456.8,1186.82 1456.8,1216.19 1486.17,1216.19 1486.17,1186.82 "/>
  <circle class="fil11" cx="1024" cy="1201.5" r="28.32"/>
  <circle class="fil12" cx="1024" cy="1201.5" r="24.0885"/>
  <polygon class="fil4" points="777.983,878.872 691.844,925.351 691.844,905.284 760.059,869.584 691.844,834.19 691.844,814.16 777.983,860.066 "/>
  <polygon class="fil4" points="558.043,878.872 558.043,860.066 644.182,814.16 644.182,834.19 575.876,869.584 644.182,905.284 644.182,925.351 "/>
  <path class="fil4" d="M850.26 719.503c0,-6.39567 -5.18622,-11.5831 -11.5831,-11.5831 -6.39567,0 -11.5831,5.18741 -11.5831,11.5831l0 300.505c0,6.39686 5.18741,11.5831 11.5831,11.5831 6.39686,0 11.5831,-5.18622 11.5831,-11.5831l0 -300.505z"/>
  <path class="fil4" d="M1220.91 719.503c0,-6.39567 -5.18622,-11.5831 -11.5831,-11.5831 -6.39567,0 -11.5831,5.18741 -11.5831,11.5831l0 300.505c0,6.39686 5.18741,11.5831 11.5831,11.5831 6.39686,0 11.5831,-5.18622 11.5831,-11.5831l0 -300.505z"/>
  <path class="fil13" d="M945.395 792.311l-3.40394 0c-8.07048,0 -13.5236,1.54488 -16.3606,4.60158 -2.83701,3.05788 -4.25552,9.36261 -4.25552,18.9449l0 22.4126c0,10.3394 -1.32402,17.7154 -4.00276,22.128 -2.67992,4.44567 -7.40788,7.62875 -14.1851,9.61418 6.77717,1.89213 11.5051,5.04449 14.1851,9.48898 2.67874,4.4126 4.00276,11.7886 4.00276,22.1599l0 22.2862c0,9.55158 1.3878,15.8551 4.16103,18.913 2.77441,3.02599 8.0067,4.57087 15.698,4.57087 0.441733,0 1.10315,-0.0318898 2.04921,-0.0944883 0.914174,-0.0637796 1.60748,-0.0944883 2.11181,-0.0944883l0 9.80316 -4.35 0c-12.1039,0 -20.3315,-2.23819 -24.587,-6.68268 -4.2874,-4.44449 -6.43111,-13.5862 -6.43111,-27.3295l0 -22.5697c0,-9.48898 -1.76457,-16.1717 -5.26418,-20.048 -2.68819,-2.97992 -6.86575,-4.82363 -12.5043,-5.51811l0 -10.0536c5.63859,-0.694489 9.81615,-2.53701 12.5043,-5.51693 3.49961,-3.90827 5.26418,-10.6228 5.26418,-20.1106l0 -22.4445c0,-13.7114 2.1437,-22.8851 6.463,-27.424 4.31811,-4.57087 12.4819,-6.83977 24.5551,-6.83977l4.35 0 0 9.80316z"/>
  <path class="fil13" d="M1102.6 792.311l3.40394 0c8.0693,0 13.5225,1.54488 16.3595,4.60158 2.83701,3.05788 4.25552,9.36261 4.25552,18.9449l0 22.4126c0,10.3394 1.32402,17.7154 4.00394,22.128 2.67874,4.44567 7.40788,7.62875 14.1851,9.61418 -6.77717,1.89213 -11.5063,5.04449 -14.1851,9.48898 -2.67992,4.4126 -4.00394,11.7886 -4.00394,22.1599l0 22.2862c0,9.55158 -1.38662,15.8551 -4.15985,18.913 -2.77441,3.02599 -8.0067,4.57087 -15.6992,4.57087 -0.440552,0 -1.10315,-0.0318898 -2.04803,-0.0944883 -0.914174,-0.0637796 -1.60748,-0.0944883 -2.11181,-0.0944883l0 9.80316 4.35 0c12.1039,0 20.3315,-2.23819 24.587,-6.68268 4.28622,-4.44449 6.42993,-13.5862 6.42993,-27.3295l0 -22.5697c0,-9.48898 1.76575,-16.1717 5.26418,-20.048 2.68937,-2.97992 6.86693,-4.82363 12.5055,-5.51811l0 -10.0536c-5.63859,-0.694489 -9.81615,-2.53701 -12.5055,-5.51693 -3.49843,-3.90827 -5.26418,-10.6228 -5.26418,-20.1106l0 -22.4445c0,-13.7114 -2.1437,-22.8851 -6.46182,-27.424 -4.31811,-4.57087 -12.4831,-6.83977 -24.5551,-6.83977l-4.35 0 0 9.80316z"/>
  <polygon class="fil14" points="946.432,830.61 1097.93,830.61 1097.93,843.075 946.432,843.075 "/>
  <polygon class="fil14" points="946.432,863.544 1097.93,863.544 1097.93,876.009 946.432,876.009 "/>
  <polygon class="fil14" points="946.432,896.479 1051.82,896.479 1051.82,908.944 946.432,908.944 "/>
  <path class="fil15" d="M1349.91 901.732c-1.62992,-1.62874 -3.88229,-2.6374 -6.36851,-2.6374 -2.4874,0 -4.73977,1.00866 -6.36969,2.6374 -1.62874,1.62992 -2.63622,3.88229 -2.63622,6.36851 0,2.48858 1.00748,4.73977 2.63622,6.36969 1.62992,1.62874 3.88229,2.6374 6.36969,2.6374 2.48622,0 4.73859,-1.00866 6.36851,-2.6374 1.62874,-1.62992 2.6374,-3.88111 2.6374,-6.36969 0,-2.48622 -1.00866,-4.73859 -2.6374,-6.36851z"/>
  <path class="fil16" d="M1391.84 806.377c-0.862205,0.157087 -1.68898,-0.413386 -1.84725,-1.27441 -4.70433,-25.65 -29.4012,-42.6922 -55.0512,-37.9878 -0.861024,0.158268 -1.6878,-0.412205 -1.84606,-1.27323 -0.158268,-0.862205 0.412205,-1.68898 1.27441,-1.84725 27.3721,-5.01969 53.7237,13.1646 58.7434,40.5355 0.158268,0.862205 -0.412205,1.68898 -1.27323,1.84725z"/>
  <path class="fil16" d="M1407.23 806.377c0.862205,0.157087 1.68898,-0.413386 1.84606,-1.27441 4.70552,-25.65 29.4012,-42.6922 55.0524,-37.9878 0.861024,0.158268 1.6878,-0.412205 1.84606,-1.27323 0.158268,-0.862205 -0.412205,-1.68898 -1.27441,-1.84725 -27.3721,-5.01969 -53.7237,13.1646 -58.7434,40.5355 -0.158268,0.862205 0.412205,1.68898 1.27323,1.84725z"/>
  <path class="fil17" d="M1408.84 808.303l0.351969 -1.21417c0.141732,-0.461811 0.0838583,-0.937796 -0.125197,-1.33465 -0.479528,-0.819686 -2.50984,-2.0563 -3.13937,-2.14488 -0.752363,0.0307087 -1.42795,0.546851 -1.62756,1.31339 -0.109843,0.420473 -0.209055,0.822048 -0.296457,1.20236l0.00708662 0.00354331 4.81536 2.16614c0.00472441,0.00236221 0.00944883,0.00590552 0.0141732,0.00826772z"/>
  <path class="fil18" d="M1375.92 823.132c-2.1378,-1.16811 -3.89174,-1.75748 -5.83937,-3.36378 -0.669686,-0.552756 -1.2378,-1.14331 -1.66063,-1.74921l-2.49685 0.908268c-1.8874,0.83504 -5.40473,2.31969 -8.18386,3.35551 -1.51181,0.563386 -2.8689,0.981497 -3.79843,1.10315 -0.291733,0.0744095 -0.607087,0.0755906 -0.917717,-0.0129921 -0.928347,-0.264567 -1.68307,-0.88819 -2.2063,-1.68307 -2.11181,-0.0625985 -5.23111,-0.679134 -6.92127,-1.35473 -1.06181,-0.424016 -2.3811,-0.569292 -3.4937,-0.272835 -0.937796,0.246851 -1.89921,-0.312992 -2.14606,-1.25197 -0.246851,-0.937796 0.314173,-1.89803 1.25197,-2.14488 1.89331,-0.501969 3.91536,-0.297638 5.72481,0.422835 1.4315,0.569292 4.31693,1.10079 6.06969,1.09961 1.01811,0 1.90984,0.597638 2.38819,1.47992l0.295276 0.32126c0.10748,-0.0106299 1.06536,-0.448819 2.52874,-0.994489 2.60906,-0.972048 6.08741,-2.4437 7.99253,-3.28583 1.07599,-0.474804 3.71457,-1.46929 4.79174,-1.41732 0.920079,0.0448819 1.6063,0.536221 1.82717,1.39843 0.0814961,0.33189 0.638977,0.918898 1.18347,1.36772 1.50945,1.24606 3.26929,1.89213 5.02796,2.8441 0.712205,0.38504 1.64528,0.883465 2.41418,1.41496l-3.77126 1.74213c-0.0318898,0.0141732 -0.0531496,0.0413386 -0.0602363,0.0732284z"/>
  <path class="fil18" d="M1365.75 853.273c-2.02205,0.263386 -4.48229,0.505512 -6.28819,0.0850394l0.0011811 -0.00472441c-0.113386,-0.0259843 -0.222047,-0.056693 -0.328347,-0.090945 -1.46693,2.16851 -2.31851,5.91733 -3.2067,9.21379 -1.1941,4.43386 -3.16063,11.7378 -6.11339,13.1681 -0.925985,0.447638 -1.97008,0.42874 -2.92205,0.0968505 -1.67835,0.823229 -3.91418,1.55433 -5.59843,1.88386l-0.732284 0.265748c-1.23307,0.543308 -2.88307,0.638977 -3.39449,1.17165 -0.672048,0.699213 -1.78347,0.720473 -2.48268,0.0484252 -0.699213,-0.672048 -0.720473,-1.78347 -0.0484252,-2.48268 1.52008,-1.58268 3.26575,-1.40788 4.50945,-1.95709l1.4752 -0.498426c1.46929,-0.288189 3.43465,-0.935434 4.88859,-1.67362 1.35,-0.686221 2.67874,0.0283465 2.77795,-0.0188977 1.67717,-0.810237 3.68386,-8.82638 4.7126,-12.6555 1.1185,-4.16811 1.89449,-7.06064 3.97677,-9.52796 0.79252,-0.937796 2.1248,-1.05945 3.12992,-0.432284l0.151181 0.0720473 0.0011811 -0.00354331c1.3311,0.309449 3.71103,0.0330709 5.3126,-0.18189 -0.00944883,0.0165354 -0.0141732,0.0366142 -0.0129921,0.056693l0.162992 3.39567c0.0011811,0.0271654 0.011811,0.0507874 0.0283465,0.0696851z"/>
  <path class="fil18" d="M1367.3 885.937c-2.93977,0.752363 -6.28701,1.62638 -8.61969,1.44567 -1.97362,5.3941 -3.41457,15.7665 -4.42559,22.3725 -0.64252,4.20355 0.0649607,10.1315 -2.4,13.6288 -0.529134,0.750001 -1.34764,1.1811 -2.24055,1.27205l-0.210236 0.0496063 -0.00354331 -0.00944883c-1.85788,1.39488 -4.76103,2.60315 -6.81378,3.15827l-0.0011811 -0.00472441 -0.701575 0.317717c-1.17165,0.622441 -2.82166,0.829134 -3.30118,1.40906 -0.618898,0.747638 -1.72795,0.852757 -2.47559,0.233858 -0.748819,-0.618898 -0.852757,-1.72795 -0.233858,-2.47559 1.39134,-1.68307 3.14764,-1.63228 4.35945,-2.27599l1.44685 -0.597638 -0.0011811 -0.00472441c1.71732,-0.464174 4.09843,-1.45394 5.6504,-2.5878l-0.00354331 -0.00472441c0.494882,-0.37441 1.16575,-0.595276 1.77284,-0.682678 1.55788,-2.56063 1.12913,-8.36575 1.67717,-11.948 1.05118,-6.87166 2.7378,-18.9295 5.01851,-24.1063l-0.0011811 -0.0011811c0.490158,-1.10787 1.73858,-1.6748 2.86654,-1.29567l0.056693 0.0177165 0.0011811 -0.0011811 0.0696851 0.0153543 0.0011811 -0.00472441c1.67953,0.206693 4.83307,-0.615355 7.54961,-1.30748 -0.00944883,0.022441 -0.011811,0.0484252 -0.00472441,0.0732284l0.96378 3.30236 0.00354331 0.011811z"/>
  <path class="fil18" d="M1431.91 882.116c2.7626,0.687402 6.49725,1.73858 8.23583,1.45866l0.0755906 -0.0177165 0 -0.00236221c1.13976,-0.381496 2.38583,0.193701 2.86418,1.31811l0.00236221 -0.0011811c2.34331,5.50394 3.9189,16.9713 5.0126,24.0862 0.550394,3.58701 0.120473,9.39095 1.68071,11.9492 0.604725,0.0885827 1.26496,0.308268 1.76575,0.690945l0.00236221 -0.00354331c1.47165,1.10906 4.01693,2.1437 5.65276,2.58662l1.43858 0.604725 0.0011811 -0.00236221c1.21417,0.644882 2.96811,0.592914 4.35945,2.27599 0.618898,0.747638 0.51378,1.85669 -0.233858,2.47559 -0.748819,0.618898 -1.85788,0.51378 -2.47677,-0.233858 -0.478347,-0.579922 -2.12717,-0.786615 -3.3,-1.40906l0.00236221 -0.00236221 -0.712205 -0.31063c-2.03268,-0.552756 -4.97599,-1.77756 -6.81851,-3.15355l-0.197244 -0.0448819c-0.900001,-0.090945 -1.72205,-0.523229 -2.24764,-1.27913l0.00354331 -0.00236221c-2.45315,-3.43465 -1.75984,-9.44292 -2.40118,-13.6193 -1.01693,-6.62126 -2.44725,-16.9665 -4.42559,-22.3725 -2.34449,0.18189 -5.7189,-0.705119 -8.67402,-1.46102l0.00236221 -0.0129921 0.446457 -3.40512c0.00708662,-0.0472441 -0.0188977,-0.0921261 -0.0590552,-0.112205z"/>
  <path class="fil18" d="M1433.43 849.876c1.49882,0.201969 4.34055,0.531496 5.46024,0.179528l0.0874016 -0.0519685 -0.0011811 -0.00236221c1.02402,-0.637796 2.3504,-0.514961 3.17126,0.48189 2.29016,2.7815 3.02481,6.08741 4.19882,10.4291 1.02047,3.77717 2.84055,10.9287 4.4504,11.7047l0.386221 -0.106299c0.746457,-0.246851 1.68307,-0.242126 2.38937,0.127559l0.00236221 -0.00236221c1.53662,0.78189 3.36851,1.35709 4.92402,1.68071l1.43976 0.49252c1.23543,0.54567 2.99173,0.37441 4.51418,1.95591 0.672048,0.699213 0.650788,1.81063 -0.0484252,2.48386 -0.699213,0.672048 -1.81063,0.650788 -2.48268,-0.0484252 -0.512599,-0.532678 -2.16969,-0.629528 -3.39922,-1.17402l-0.762993 -0.269292c-1.74213,-0.361418 -3.83977,-1.0311 -5.5689,-1.87914 -0.950788,0.33189 -1.99606,0.350788 -2.92087,-0.0968505 -2.95984,-1.43268 -4.92874,-8.76615 -6.11693,-13.1965 -0.851575,-3.16772 -1.73622,-7.02166 -3.20197,-9.18544 -1.71851,0.558662 -4.54134,0.279921 -6.56457,0.0177165 0.0011811,-0.00708662 0.00236221,-0.0129921 0.00236221,-0.0200788l0.0519685 -3.47362c0,-0.0165354 -0.00354331,-0.0330709 -0.0106299,-0.0472441z"/>
  <path class="fil18" d="M1420.15 820.861c1.18465,-0.689764 2.4,-1.35118 3.60236,-1.90866 1.1126,-0.511418 2.14961,-1.1374 2.94095,-1.78819 0.643701,-0.530315 1.07244,-0.982678 1.21654,-1.45866 0.369685,-1.22599 1.64173,-1.50945 2.78622,-1.1941 1.33228,0.366142 2.44134,0.7063 3.80197,1.3063 1.90866,0.840946 5.39764,2.31732 8.00788,3.28819 1.4563,0.542126 2.40473,0.979135 2.50748,0.987402 0.0354331,-0.0106299 0.068504,-0.0295276 0.0980316,-0.0543308l-0.00354331 -0.00354331c0.080315,-0.0696851 0.15,-0.161811 0.209055,-0.26811l-0.00236221 -0.0011811c0.455906,-0.878741 1.40079,-1.47756 2.41418,-1.46811 1.76457,0.0153543 4.6441,-0.565748 6.0756,-1.12323l0 -0.00236221c1.79764,-0.711024 3.86339,-0.887009 5.69174,-0.403937 0.937796,0.246851 1.49882,1.20827 1.25197,2.14606 -0.246851,0.937796 -1.20827,1.49882 -2.14606,1.25197 -1.10079,-0.291733 -2.39882,-0.158268 -3.50551,0.279921l0 -0.00354331c-1.61575,0.667323 -4.84725,1.29095 -6.91064,1.35591 -0.216142,0.329528 -0.466536,0.625985 -0.752363,0.87756l-0.00354331 -0.00354331c-0.402756,0.362599 -0.915355,0.650788 -1.45394,0.804331l0 -0.00236221c-0.752363,0.214961 -2.56772,-0.28937 -4.69489,-1.08071 -2.7815,-1.03583 -6.30709,-2.52402 -8.19922,-3.3567l-2.49567 -0.914174c-1.18583,1.69961 -3.39685,3.11221 -5.36221,4.02048l-2.1437 1.10315c-0.00472441,-0.0248032 -0.0177165,-0.046063 -0.0389764,-0.0625985l-2.88898 -2.32205 -0.00236221 -0.0011811z"/>
  <path class="fil17" d="M1390.26 808.303l-0.351969 -1.21417c-0.141732,-0.461811 -0.0838583,-0.937796 0.125197,-1.33465 0.183071,-0.39567 2.20512,-1.92874 3.13937,-2.14488 0.752363,0.0307087 1.42795,0.546851 1.62756,1.31339 0.109843,0.420473 0.209055,0.822048 0.296457,1.20236l-0.00708662 0.00354331 -4.81536 2.16614c-0.00472441,0.00236221 -0.00944883,0.00590552 -0.0141732,0.00826772z"/>
  <path class="fil16" d="M1408.95 808.01c0.512599,0.637796 0.729922,1.44095 0.676772,2.31851 -0.0625985,1.09843 0.068504,2.25945 0.360236,3.20315l0.00236221 -0.00354331c0.565748,0.487796 1.46339,1.26142 2.15906,2.93386 0.376772,0.907087 1.49764,1.27441 3.03425,1.77756 1.61339,0.527953 3.60709,1.15394 5.34804,2.28662 -0.00236221,0.0354331 0.011811,0.0708662 0.0413386,0.0944883l2.88898 2.32205c0.046063,0.0377953 0.114567,0.0307087 0.153543,-0.0165354 0.601182,0.364961 1.40788,0.725197 2.68819,1.10433 3.04607,0.896457 10.1067,5.96811 10.3287,9.38505 0.121654,1.84606 -0.61063,3.11339 -1.37244,4.42914 -0.47126,0.814961 -0.957875,1.65709 -1.02756,2.56181 0.0330709,1.50709 -0.0366142,6.2752 -0.0814961,9.29764 -0.0212599,0.0200788 -0.034252,0.0472441 -0.0354331,0.0779528l-0.0507874 3.47362c-0.0011811,0.0212599 0.00472441,0.0401575 0.0141732,0.056693 -0.115748,4.15276 -0.210236,8.16615 -0.056693,11.3291 0.193701,4.05118 -0.454725,13.3028 -0.829134,17.7236l0.0555119 0.0141732c-0.0555119,-0.0011811 -0.103937,0.0389764 -0.112205,0.0956694l-0.446457 3.40394c-0.00708662,0.0519685 0.0236221,0.100394 0.0696851,0.11811l-0.766536 3.83032 -0.00472441 -0.0011811c-0.357874,1.58268 -1.52953,2.8878 -1.56024,3.03662 -0.399213,2.06339 -1.30984,5.86418 -2.87126,7.92048 -0.54567,0.718111 -1.09724,0.957875 -1.60394,1.11378 -0.959056,2.36103 -2.46732,5.54882 -4.13622,7.96418l-0.0011811 -0.0011811c-1.15276,1.71378 -2.56536,1.93583 -2.67166,2.02087 -0.0625985,0.0507874 -2.63622,4.42796 -4.88504,5.70237 -0.805512,0.458268 -1.63465,0.561024 -2.32677,0.647245 -0.0696851,0.00826772 -0.0141732,-0.108662 -0.0448819,-0.360236l-0.0011811 -0.0011811c-1.60866,2.62323 -3.59174,5.09056 -6.67796,4.98071 -1.44921,1.36181 -4.48229,2.46142 -6.52914,2.12599 -1.65591,-0.270473 -3.72166,-1.04055 -4.91575,-2.24528l-0.249213 0.00354331 0 -0.00708662c-1.45394,-0.12874 -3.43819,-0.305906 -6.29882,-4.85079l0.00236221 -0.0011811 -0.00590552 -0.0106299c-0.0318898,0.257481 0.0283465,0.375591 -0.0448819,0.366142 -0.701575,-0.0862205 -1.49173,-0.184252 -2.3126,-0.640158l0.0011811 -0.00236221c-2.25473,-1.25315 -4.82363,-5.64804 -4.89685,-5.70591 -0.729922,-0.255118 -1.69725,-0.604725 -2.6752,-2.02087 -2.4874,-3.59882 -3.20551,-5.71536 -5.75079,-9.07914l-1.37835 -3.23268c-1.24016,-3.10276 -3.0437,-7.70552 -3.04725,-7.72205l-0.775985 -3.87638c0.0153543,-0.0259843 0.0200788,-0.056693 0.011811,-0.0874016l-0.96378 -3.30236c-0.0106299,-0.0366142 -0.0389764,-0.0637796 -0.0732284,-0.0744095 -0.354331,-5.00433 -0.433465,-13.6453 -0.231496,-17.8453 0.153543,-3.17362 0.056693,-7.19764 -0.0555119,-11.361 0.0248032,-0.0212599 0.0401575,-0.0531496 0.0377953,-0.0874016l-0.162992 -3.39685c-0.00236221,-0.0366142 -0.022441,-0.0696851 -0.0507874,-0.0874016l-0.011811 -3.71929 0.00236221 0 -0.022441 -2.94095c0.00236221,-0.923623 0.0129921,-1.81181 0.034252,-2.65276 -0.0484252,-1.92992 -2.60551,-3.77835 -2.40118,-6.98032 0.218504,-3.40748 7.28741,-8.49095 10.3299,-9.39095l0 0.00236221c1.34291,-0.412205 2.04213,-0.703938 2.69528,-1.10197 0.0318898,0.0318898 0.0814961,0.0425197 0.125197,0.0236221l3.83386 -1.77165c0.0318898,-0.0141732 0.0531496,-0.0425197 0.0614174,-0.0732284 0.561024,0.0389764 1.06772,-1.53543 1.90748,-1.91929l0.882284 -0.394488 0 0.0011811c0.558662,-0.205512 1.10787,-0.38504 1.62165,-0.553937 1.53307,-0.501969 2.65394,-0.869292 3.03189,-1.7752 0.698032,-1.67717 1.59803,-2.45315 2.16732,-2.94331 0.302362,-1.0063 0.411024,-2.14252 0.348425,-3.19016 -0.0637796,-0.840946 0.173622,-1.65709 0.65315,-2.27835 0.0307087,0.0389764 0.0850394,0.0543308 0.132284,0.0330709l4.81536 -2.16614c0.0814961,-0.0377953 0.0862205,-0.151181 0.0106299,-0.196063 1.36654,-1.01457 2.8937,-1.29921 4.57087,-1.29921l0 0.00472441c1.69016,-0.0377953 3.28229,0.452363 4.4374,1.33228 0.0200788,0.0437008 0.0732284,0.0661418 0.126378,0.0661418 0.00826772,0.00944883 0.0188977,0.0165354 0.0307087,0.022441l4.6252 2.16614c0.0330709,0.0153543 0.0696851,0.0129921 0.100394,-0.00354331z"/>
  <path class="fil19" d="M1416.5 818.677c0.601182,0.206693 1.22717,0.435827 1.85315,0.705119 0.666142,0.559843 1.59567,0.536221 2.12008,1.11969 0.00826772,0.0318898 0.034252,0.0519685 0.0614174,0.0744095l2.40709 1.95118 0.517323 0.415748c0.046063,0.0377953 0.114567,0.0307087 0.153543,-0.0165354 0.601182,0.364961 1.40788,0.725197 2.68819,1.10433 3.04607,0.896457 10.1067,5.96811 10.3287,9.38505 0.121654,1.84606 -0.61063,3.11339 -1.37244,4.42914 -0.47126,0.814961 -0.957875,1.65709 -1.02756,2.56181 0.0330709,1.50709 -0.0366142,6.2752 -0.0814961,9.29764 -0.0212599,0.0200788 -0.034252,0.0472441 -0.0354331,0.0779528l-0.0507874 3.47362c-0.0011811,0.0212599 0.00472441,0.0401575 0.0141732,0.056693 -0.115748,4.15276 -0.210236,8.16615 -0.056693,11.3291 0.193701,4.05118 -0.454725,13.3028 -0.829134,17.7236l0.0555119 0.0141732c-0.0555119,-0.0011811 -0.103937,0.0389764 -0.112205,0.0956694l-0.446457 3.40394c-0.00708662,0.0519685 0.0236221,0.100394 0.0696851,0.11811l-0.766536 3.83032 -0.00472441 -0.0011811c-0.357874,1.58268 -1.52953,2.8878 -1.56024,3.03662 -0.399213,2.06339 -1.30984,5.86418 -2.87126,7.92048 -0.54567,0.718111 -1.09724,0.957875 -1.60394,1.11378 -0.959056,2.36103 -2.46732,5.54882 -4.13622,7.96418l-0.0011811 -0.0011811c-1.15276,1.71378 -2.56536,1.93583 -2.67166,2.02087 -0.0625985,0.0507874 -2.63622,4.42796 -4.88504,5.70237 -0.509056,0.28937 -1.02756,0.437008 -1.51536,0.527953 -7.8189,-22.3099 -12.6744,-52.3878 -12.6744,-82.6666 0,-6.83268 6.44882,-12.8941 16.4339,-16.7681z"/>
  <path class="fil19" d="M1386.68 918.168c-0.574016,-0.0850394 -1.1941,-0.223229 -1.83307,-0.577559l0.0011811 -0.00236221c-2.25473,-1.25315 -4.82363,-5.64804 -4.89685,-5.70591 -0.729922,-0.255118 -1.69725,-0.604725 -2.6752,-2.02087 -2.4874,-3.59882 -3.20551,-5.71536 -5.75079,-9.07914l-1.37835 -3.23268c-1.24016,-3.10276 -3.0437,-7.70552 -3.04725,-7.72205l-0.775985 -3.87638c0.0153543,-0.0259843 0.0200788,-0.056693 0.011811,-0.0874016l-0.96378 -3.30236c-0.0106299,-0.0366142 -0.0389764,-0.0637796 -0.0732284,-0.0744095 -0.354331,-5.00433 -0.433465,-13.6453 -0.231496,-17.8453 0.153543,-3.17362 0.056693,-7.19764 -0.0555119,-11.361 0.0248032,-0.0212599 0.0401575,-0.0531496 0.0377953,-0.0874016l-0.162992 -3.39685c-0.00236221,-0.0366142 -0.022441,-0.0696851 -0.0507874,-0.0874016l-0.011811 -3.71929 0.00236221 0 -0.022441 -2.94095c0.00236221,-0.923623 0.0129921,-1.81181 0.034252,-2.65276 -0.0484252,-1.92992 -2.60551,-3.77835 -2.40118,-6.98032 0.218504,-3.40748 7.28741,-8.49095 10.3299,-9.39095l0 0.00236221c1.34291,-0.412205 2.04213,-0.703938 2.69528,-1.10197 0.0318898,0.0318898 0.0814961,0.0425197 0.125197,0.0236221l3.83386 -1.77165c0.0318898,-0.0141732 0.0531496,-0.0425197 0.0614174,-0.0732284 0.561024,0.0389764 1.06772,-1.53543 1.90748,-1.91929l0.882284 -0.394488 0 0.0011811c0.168898,-0.0614174 0.336614,-0.121654 0.501969,-0.178347 10.0795,3.87048 16.5992,9.96142 16.5992,16.8319 0,30.3036 -4.86378,60.4075 -12.6933,82.7233z"/>
  <line class="fil16" x1="1389.44" y1="810.329" x2="1389.44" y2= "810.329" />
  <line class="fil16" x1="1341.88" y1="816.107" x2="1341.88" y2= "816.107" />
  <line class="fil16" x1="1341.62" y1="819.614" x2="1341.62" y2= "819.614" />
  <line class="fil16" x1="1339.73" y1="874.174" x2="1339.73" y2= "874.174" />
  <line class="fil16" x1="1340.4" y1="877.625" x2="1340.4" y2= "877.625" />
  <line class="fil16" x1="1450.65" y1="924.656" x2="1450.65" y2= "924.656" />
  <line class="fil16" x1="1450.84" y1="924.7" x2="1450.84" y2= "924.7" />
  <line class="fil16" x1="1459.41" y1="877.889" x2="1459.41" y2= "877.889" />
  <line class="fil16" x1="1460.83" y1="874.672" x2="1460.83" y2= "874.672" />
  <line class="fil16" x1="1459.39" y1="874.179" x2="1459.39" y2= "874.179" />
  <line class="fil16" x1="1445.57" y1="819.68" x2="1445.57" y2= "819.68" />
  <line class="fil16" x1="1409.62" y1="810.329" x2="1409.62" y2= "810.329" />
  <path class="fil20" d="M1410.07 813.79c0.105118,0.270473 -0.0838583,-0.236221 -0.0838583,-0.259843l-0.00236221 0.00236221c0.0259843,0.0850394 0.0531496,0.165354 0.0791339,0.238583l0.00708662 0.0188977z"/>
  <path class="fil21" d="M1407.12 839.279c-0.687402,-0.687402 -1.80236,-0.687402 -2.48977,0 -0.687402,0.687402 -0.687402,1.80236 0,2.48977l16.5768 14.0858 -14.087 -16.5756z"/>
  <path class="fil21" d="M1391.15 860.751c0.497244,-0.831497 1.57441,-1.10197 2.40709,-0.604725 0.831497,0.497244 1.10315,1.57559 0.604725,2.40709l-12.9721 18.2138 9.96024 -20.0162z"/>
  <path class="fil21" d="M1407.38 860.751c-0.497244,-0.831497 -1.57559,-1.10197 -2.40709,-0.604725 -0.832678,0.497244 -1.10315,1.57559 -0.605906,2.40709l12.9721 18.2138 -9.95906 -20.0162z"/>
  <path class="fil21" d="M1388.64 885.65c0.361418,-0.900001 1.38307,-1.33701 2.28307,-0.976772 0.901182,0.361418 1.33819,1.38307 0.976772,2.28425l-9.32599 18.5835 6.06615 -19.891z"/>
  <path class="fil21" d="M1410.45 885.65c-0.360236,-0.900001 -1.38307,-1.33701 -2.28307,-0.976772 -0.900001,0.361418 -1.33819,1.38307 -0.976772,2.28425l9.32599 18.5835 -6.06615 -19.891z"/>
  <path class="fil21" d="M1391.42 839.279c0.687402,-0.687402 1.80236,-0.687402 2.48977,0 0.687402,0.687402 0.687402,1.80236 0,2.48977l-16.5768 14.0858 14.087 -16.5756z"/>
  <line class="fil22" x1="1371.53" y1="900.784" x2="1371.53" y2= "900.784" />
  <path class="fil15" d="M1355.03 843.188c0.941339,1.88858 1.89685,4.08898 2.84646,6.27756 2.1437,4.93701 4.25552,9.80079 5.88071,10.4882 1.66063,0.702756 6.74646,-1.34291 11.8193,-3.38268 2.98465,-1.20118 7.82127,-4.16221 10.676,-1.34764 1.93583,1.56614 3.70512,3.15118 5.30197,4.74685 1.6937,1.69488 3.37677,3.58583 5.03741,5.66221l0.0177165 -0.0141732c1.01339,1.26732 1.21063,2.92559 0.662599,4.33701 -0.635434,1.8248 -1.47402,3.91063 -2.31378,5.99764 -2.03977,5.07166 -4.08662,10.1575 -3.38386,11.8181 0.687402,1.62638 5.55237,3.73819 10.4882,5.88071 2.89607,1.25787 8.69883,2.74843 8.9752,6.59292 0.407481,3.55394 2.25,17.3977 -2.69646,19.4563 -1.88858,0.941339 -4.09016,1.89685 -6.27874,2.84764 -4.93583,2.14252 -9.79961,4.25433 -10.4882,5.88071 -0.701575,1.66063 1.3441,6.74646 3.38386,11.8181 0.864568,2.15079 1.72914,4.29922 2.37166,6.16182l0.00236221 -0.0011811c0.561024,1.6311 0.10748,3.36614 -1.02638,4.51654 -2.75551,3.40394 -10.3193,12.737 -14.7354,11.0185 -1.82362,-0.635434 -3.90827,-1.47402 -5.9941,-2.31378 -5.07284,-2.03977 -10.1587,-4.08544 -11.8193,-3.38268 -1.6252,0.687402 -3.73701,5.55119 -5.88071,10.4882 -1.25669,2.89488 -2.74725,8.69764 -6.59292,8.9752 -4.77048,0.546851 -17.5122,1.97244 -19.4551,-2.69764 -0.941339,-1.88858 -1.89685,-4.08898 -2.84764,-6.27874 -2.1437,-4.93583 -4.25552,-9.79961 -5.88071,-10.487 -1.66063,-0.702756 -6.74646,1.34291 -11.8193,3.38268 -2.14961,0.865749 -4.29803,1.72914 -6.16063,2.37166l0 0.00236221c-1.62992,0.562205 -3.36496,0.10748 -4.51536,-1.02638 -1.93583,-1.56614 -3.70512,-3.15118 -5.30197,-4.74804 -2.22992,-2.22992 -7.13859,-6.32953 -5.71772,-9.98505 0.635434,-1.8248 1.4752,-3.90945 2.31496,-5.99646 2.03977,-5.07284 4.08426,-10.1575 3.38268,-11.8181 -0.687402,-1.62638 -5.55119,-3.73819 -10.4882,-5.88071 -2.89607,-1.25787 -8.69883,-2.74843 -8.9752,-6.59292 -0.13937,-1.20945 -0.249213,-2.48622 -0.329528,-3.83032 -0.0838583,-1.43858 -0.12874,-2.78268 -0.12874,-4.0252 0,-1.24252 0.0448819,-2.58662 0.12874,-4.02402 0.0850394,-1.41969 0.20315,-2.76378 0.35315,-4.03465l-0.00472441 -0.0011811c0.193701,-1.63347 1.26024,-2.9504 2.67756,-3.54095 1.88858,-0.941339 4.09016,-1.89685 6.27874,-2.84764 4.93701,-2.14252 9.80079,-4.25433 10.4882,-5.88071 0.701575,-1.66063 -1.3441,-6.74646 -3.38386,-11.8181 -0.864568,-2.15079 -1.72914,-4.29922 -2.37047,-6.16182l-0.00354331 0.0011811c-0.561024,-1.6311 -0.10748,-3.36614 1.02638,-4.51654 1.56614,-1.93465 3.15236,-3.70512 4.74804,-5.30079 2.2311,-2.2311 6.32953,-7.13977 9.98623,-5.71772 1.82362,0.635434 3.90945,1.47402 5.99646,2.31378 5.07166,2.03977 10.1575,4.08544 11.8181,3.38268 1.6252,-0.687402 3.73701,-5.55119 5.88071,-10.4882 2.45788,-5.66103 2.44961,-8.03741 7.15867,-8.93741 4.26969,-0.814961 17.0599,-1.73858 18.8906,2.65984z"/>
  <path class="fil15" d="M1361.5 890.135c-4.59685,-4.59685 -10.9488,-7.44095 -17.9646,-7.44095 -7.01693,0 -13.3689,2.8441 -17.9658,7.44095 -4.59685,4.59804 -7.44095,10.95 -7.44095,17.9658 0,7.01575 2.8441,13.3677 7.44095,17.9658 4.59685,4.59685 10.9488,7.44095 17.9658,7.44095 7.01575,0 13.3677,-2.8441 17.9646,-7.44095 4.59804,-4.59804 7.44095,-10.95 7.44095,-17.9658 0,-7.01575 -2.84292,-13.3677 -7.44095,-17.9658z"/>
  <path class="fil23" d="M1343.54 873.911c9.44056,0 17.987,3.82677 24.1748,10.0146 6.1878,6.18662 10.0146,14.7343 10.0146,24.1748 0,9.44056 -3.82677,17.9882 -10.0146,24.1748 -6.1878,6.1878 -14.7343,10.0146 -24.1748,10.0146 -9.44056,0 -17.9882,-3.82677 -24.176,-10.0146 -6.18662,-6.18662 -10.0134,-14.7343 -10.0134,-24.1748 0,-9.44056 3.82677,-17.9882 10.0134,-24.1748 6.1878,-6.1878 14.7354,-10.0146 24.176,-10.0146z"/>
  <path class="fil15" d="M1343.54 891.579c4.56142,0 8.69174,1.84961 11.6811,4.84016 2.99055,2.98937 4.83898,7.11969 4.83898,11.6811 0,4.56142 -1.84843,8.69174 -4.83898,11.6811 -2.98937,2.99055 -7.11969,4.84016 -11.6811,4.84016 -4.56142,0 -8.69174,-1.84961 -11.6823,-4.84016 -2.98937,-2.98937 -4.83898,-7.11969 -4.83898,-11.6811 0,-4.56142 1.84961,-8.69174 4.83898,-11.6811 2.99055,-2.99055 7.12087,-4.84016 11.6823,-4.84016z"/>
 </g>
</svg>
